<?xml version="1.0" standalone="no"?>
<!DOCTYPE svg PUBLIC "-//W3C//DTD SVG 1.1//EN"
  "http://www.w3.org/Graphics/SVG/1.1/DTD/svg11.dtd">
<svg version="1.1" xmlns="http://www.w3.org/2000/svg" xmlns:xlink="http://www.w3.org/1999/xlink" width="1078" height="679" viewBox="-912.0947164948454 15 1101.8144329896909 694" id="ccdiagram"><filter id="grayscale"><feColorMatrix type="saturate" values="0"></feColorMatrix></filter><filter id="highlight"><feColorMatrix type="matrix" color-interpolation-filters="sRGB" values="0.20338 0 0 0 0
                0 0.58474 0 0 0
                0 0 0.97033 0 0
                0 0 0 1 0"></feColorMatrix></filter><defs><style type="text/css">@import url('https://fonts.googleapis.com/css?family=Open+Sans:400,700|Inconsolata:400');</style></defs><g><rect x="-912.0947164948454" y="15" width="1101.8144329896909" height="694" fill="none" id="interactionLayer"></rect><g style="pointer-events: none;"><g><pattern id="gridPatternMinor" x="0" y="37" width="128" height="74" patternUnits="userSpaceOnUse"><path d="M 0 0 L 128 74" stroke="#eeeeee" stroke-width="1"></path><path d="M 128 0 L 0 74" stroke="#eeeeee" stroke-width="1"></path></pattern><polygon points="-361 -303, 790 362, -362 1027, -1512 362" fill="url(#gridPatternMinor)"></polygon></g></g><g pointer-events="auto"></g><g style="pointer-events: none;"><g><pattern id="gridPatternMajor" x="0" y="37" width="128" height="74" patternUnits="userSpaceOnUse"><path d="M 64 0 L 128 37 64 74 0 37 z" stroke="#54626f" stroke-width="1" fill="none"></path></pattern><polygon points="-361 -303, 790 362, -362 1027, -1512 362" fill="url(#gridPatternMajor)"></polygon></g></g><g pointer-events="auto"></g><g pointer-events="auto"></g><g></g><g pointer-events="auto"></g><g></g><g pointer-events="auto"></g><g pointer-events="auto"></g><g pointer-events="none"></g><g pointer-events="auto"><g id="af67d42c-df08-4e6d-8258-4c3c2c29c98f-e6ecb026-5bdc-46ad-8864-7940ae03d480"><g cursor="cell"><line x1="-304" y1="324" x2="-228" y2="174" stroke="red" stroke-width="8" opacity="0"></line><line x1="-304" y1="324" x2="-228" y2="174" stroke="#000000" stroke-width="2" stroke-linecap="round"></line><polygon points="-224 167, -242 178, -229 176, -220 182, -224 167" stroke-linejoin="round" fill="#000000" stroke="#000000" stroke-width="1"></polygon></g></g><g id="af67d42c-df08-4e6d-8258-4c3c2c29c98f-24d6192e-ebcf-4a4c-91e4-aa481db4e04b"><g cursor="cell"><line x1="-304" y1="324" x2="-107" y2="245" stroke="red" stroke-width="8" opacity="0"></line><line x1="-304" y1="324" x2="-107" y2="245" stroke="#000000" stroke-width="2" stroke-linecap="round"></line><polygon points="-96 241, -123 243, -111 246, -110 254, -96 241" stroke-linejoin="round" fill="#000000" stroke="#000000" stroke-width="1"></polygon></g></g><g id="af67d42c-df08-4e6d-8258-4c3c2c29c98f-8b6bf968-49ec-4454-8125-b4f33cb4c3e1"><g cursor="cell"><line x1="-304" y1="324" x2="70" y2="340" stroke="red" stroke-width="8" opacity="0"></line><line x1="-304" y1="324" x2="70" y2="340" stroke="#000000" stroke-width="2" stroke-linecap="round"></line><polygon points="83 340, 60 333, 66 340, 58 346, 83 340" stroke-linejoin="round" fill="#000000" stroke="#000000" stroke-width="1"></polygon></g></g><g id="e800ecec-e623-4ba4-be50-03508c7991b0-af67d42c-df08-4e6d-8258-4c3c2c29c98f"><g cursor="cell"><line x1="-519" y1="448" x2="-394" y2="376" stroke="red" stroke-width="8" opacity="0"></line><line x1="-519" y1="448" x2="-394" y2="376" stroke="#000000" stroke-width="2" stroke-linecap="round"></line><polygon points="-384 370, -410 375, -396 377, -393 385, -384 370" stroke-linejoin="round" fill="#000000" stroke="#000000" stroke-width="1"></polygon></g></g><g id="e61015a8-3d4d-478d-af8d-c26607fe8a5e-e800ecec-e623-4ba4-be50-03508c7991b0"><g cursor="cell"><line x1="-780" y1="599" x2="-591" y2="490" stroke="red" stroke-width="8" opacity="0"></line><line x1="-780" y1="599" x2="-591" y2="490" stroke="#000000" stroke-width="2" stroke-linecap="round"></line><polygon points="-581 484, -607 489, -594 491, -590 499, -581 484" stroke-linejoin="round" fill="#000000" stroke="#000000" stroke-width="1"></polygon></g></g></g><g pointer-events="auto"><g><g id="e6ecb026-5bdc-46ad-8864-7940ae03d480"><svg x="-256" y="47" width="128" height="137.556" viewBox="0 0 33.867 36.395"><g fill="#4286c5" stroke-width=".265" font-family="sans-serif" font-size="3.175"><path fill="#d2d2d4" d="M.187 12.17v14.365l16.587 9.576-.002-14.363-4.146-7.183-8.292-4.788z"></path><path fill="#b8b8bb" d="m20.956 14.565 8.292-4.788 4.145 2.394.001 14.364-16.587 9.577.001-14.365z"></path><path fill="#ececed" d="m4.333 9.777 8.292 4.787h8.295l8.292-4.787v-4.79L20.92.202h-8.294L4.334 4.988zm8.524 4.788h8.293l-4.148 7.182z"></path><path fill="#d2d2d4" d="m4.393 4.806.002 4.789-4.148 2.393zm24.82 4.788-.001-4.788 4.146 7.182z"></path><path fill="none" stroke="#83838a" d="m208.47 90.288 4.345-4.346 4.346 8.693z" transform="matrix(.95417 .55084 -.95417 .55084 -100.053 -150.003)" stroke-linejoin="round" stroke-width=".264"></path><path fill="none" stroke="#83838a" d="m199.734 94.678 13.037 13.037h17.383L217.117 94.68l-8.692-4.347h-8.69zm13.085-8.75v-8.69h4.345l13.037 13.037.001 17.382-13.037-13.037zm-13.085 4.405h8.69l4.347-4.346v-8.69l-4.347-4.347h-8.69l-4.346 4.346v8.69z" transform="matrix(.95417 .55084 -.95417 .55084 -100.053 -150.003)" stroke-linejoin="round" stroke-width=".257"></path><path fill="none" stroke="#000000" d="m212.855 107.631-13.037-13.037-4.346-8.692v-8.69l4.346-4.347h8.69l8.692 4.346 13.038 13.038v17.383z" transform="matrix(.95417 .55084 -.95417 .55084 -100.053 -150.003)" stroke-width=".514"></path><g><path d="M202.697 81.337h.723q1.014 0 1.517-.397.503-.404.503-1.17 0-.772-.425-1.14-.418-.37-1.318-.37h-1zm4.961-1.645q0 1.673-1.049 2.559-1.041.886-2.97.886h-.942v3.685H200.5V76.46h3.31q1.885 0 2.863.816.985.807.985 2.416z" transform="matrix(.95417 .55084 -.95417 .55084 -100.053 -150.003)" font-family="Open Sans" font-size="14.515"></path></g></g></svg></g></g><g><g id="24d6192e-ebcf-4a4c-91e4-aa481db4e04b"><svg x="-120" y="184" width="112.002" height="70.288" viewBox="0 0 29.634 18.597"><path fill="none" stroke="#4b120c" d="M29.369 9.367 27.29 7.53l-16.631 4.779-8.316-4.801" stroke-linejoin="round" stroke-width=".267"></path><path fill="#ce3222" stroke="#4b120c" d="m14.817 14.733-2.08 3.6h4.158zM.264 11.108l2.08-3.6-2.08 1.825z" fill-rule="evenodd" stroke-linejoin="round" stroke-width=".267"></path><path fill="#a2281b" stroke="#4b120c" d="m29.369 11.131-2.079-3.6 2.079 1.836z" fill-rule="evenodd" stroke-linejoin="round" stroke-width=".267"></path><path fill="#e05243" stroke="#4b120c" d="m2.343 7.508 12.474 7.224L27.29 7.53 14.817.306z" fill-rule="evenodd" stroke-linejoin="round" stroke-width=".267"></path><path fill="#ce3222" stroke="#4b120c" d="m.264 11.108 2.08-3.6 12.473 7.224-2.08 3.6z" fill-rule="evenodd" stroke-width=".265"></path><path fill="#a2281b" stroke="#4b120c" d="m16.895 18.333-2.078-3.6L27.29 7.53l2.079 3.601z" fill-rule="evenodd" stroke-width=".265"></path><path fill="none" stroke="#000000" d="M.264 9.333v1.775l12.474 7.225h4.157l12.474-7.202V9.367L27.29 7.53 14.817.306 2.343 7.508z" stroke-width=".529"></path><g transform="scale(.23075 .13322) rotate(45 1682.355 -3171.487)"><circle cx="2820.64" cy="255.199" r="25.979" fill="none" stroke="#ffffff" stroke-width="3.448"></circle><path fill="#ffffff" d="M2817.601 243.03h-9.126a3.038 3.038 0 0 0-3.027 3.043l-.018 18.253a3.051 3.051 0 0 0 3.042 3.042h24.337a3.051 3.051 0 0 0 3.042-3.042v-15.211a3.051 3.051 0 0 0-3.042-3.042h-12.169z"></path><g fill="#e05243" fill-rule="evenodd"><path stroke="#e05243" d="m2803.23 240.955-11.691-6.75" stroke-width="9.375"></path><path fill="#ffffff" d="m2757.335 182.443-11.691-6.75m.704-1.218a1.406 1.406 0 0 0-1.922.515 1.406 1.406 0 0 0 .515 1.92l11.692 6.75a1.406 1.406 0 0 0 1.92-.514 1.406 1.406 0 0 0-.514-1.921z" transform="translate(45.895 58.512)"></path><path fill="#ffffff" d="m2748.632 181.348-6.289-7.545 9.679 1.674c-2.276.996-3.638 3.372-3.39 5.871z" transform="translate(45.895 58.512)"></path><path fill="#ffffff" d="M2742.389 173.543a.264.264 0 0 0-.248.43l6.289 7.545a.264.264 0 0 0 .465-.196c-.237-2.388 1.062-4.653 3.232-5.603a.264.264 0 0 0-.061-.502zm.617.643 8.31 1.437c-1.787 1.06-2.87 2.952-2.906 5.049z" transform="translate(45.895 58.512)"></path></g><path fill="#e05243" stroke="#e05243" d="m2803.23 269.444-11.692 6.75" fill-rule="evenodd" stroke-width="9.375"></path><path fill="#ffffff" d="m2757.335 210.932-11.692 6.75m12.057-8.108a1.406 1.406 0 0 0-1.07.14l-11.69 6.75a1.406 1.406 0 0 0-.514 1.92 1.406 1.406 0 0 0 1.92.516l11.691-6.75a1.406 1.406 0 0 0 .516-1.921 1.406 1.406 0 0 0-.854-.655z" transform="translate(45.895 58.512)" fill-rule="evenodd"></path><path fill="#ffffff" d="m2752.035 217.922-9.678 1.673 6.288-7.545c-.274 2.47 1.102 4.837 3.39 5.872z" transform="translate(45.895 58.512)" fill-rule="evenodd"></path><path fill="#ffffff" d="M2748.639 211.787a.264.264 0 0 0-.196.094l-6.289 7.545a.264.264 0 0 0 .248.43l9.678-1.674a.264.264 0 0 0 .064-.5c-2.187-.99-3.498-3.247-3.236-5.602a.264.264 0 0 0-.27-.293zm-.22.945c.025 2.08 1.12 3.963 2.919 5.043l-8.32 1.44z" transform="translate(45.895 58.512)" fill-rule="evenodd"></path><path fill="none" stroke="#e05243" d="m2838.051 240.955 11.691-6.75" stroke-width="9.375"></path><path fill="#ffffff" d="m2792.156 182.443 5.519-3.187 6.172-3.563" transform="translate(45.895 58.512)" fill-rule="evenodd"></path><path fill="#ffffff" d="M2804.21 174.334a1.406 1.406 0 0 0-1.065.14l-6.174 3.565-5.518 3.186a1.406 1.406 0 0 0-.516 1.921 1.406 1.406 0 0 0 1.922.514l5.518-3.185 6.174-3.565a1.406 1.406 0 0 0 .513-1.92 1.406 1.406 0 0 0-.853-.656z" transform="translate(45.895 58.512)" fill-rule="evenodd"></path><path fill="#ffffff" d="m2797.455 175.453 9.679-1.673-6.289 7.545c.275-2.47-1.102-4.837-3.39-5.872z" transform="translate(45.895 58.512)" fill-rule="evenodd"></path><path fill="#ffffff" d="m2807.09 173.52-9.68 1.673a.264.264 0 0 0-.064.5c2.187.99 3.5 3.247 3.239 5.602a.264.264 0 0 0 .462.2l6.29-7.546a.264.264 0 0 0-.247-.43zm-.617.642-5.4 6.48c-.025-2.079-1.121-3.962-2.92-5.042z" transform="translate(45.895 58.512)" fill-rule="evenodd"></path><g fill="#ffffff" fill-rule="evenodd"><path stroke="#e05243" d="m2838.051 269.444 11.691 6.75" stroke-width="9.375"></path><path d="m2792.156 210.932 11.691 6.75m-10.987-7.967a1.406 1.406 0 0 0-1.923.514 1.406 1.406 0 0 0 .516 1.921l11.692 6.75a1.406 1.406 0 0 0 1.92-.515 1.406 1.406 0 0 0-.514-1.92z" transform="translate(45.895 58.512)"></path><path d="m2800.859 212.027 6.288 7.545-9.678-1.674c2.276-.996 3.638-3.372 3.39-5.871z" transform="translate(45.895 58.512)"></path><path d="M2800.756 211.783a.264.264 0 0 0-.16.27c.237 2.388-1.062 4.653-3.233 5.603a.264.264 0 0 0 .061.502l9.678 1.674a.264.264 0 0 0 .248-.43l-6.289-7.545a.264.264 0 0 0-.305-.074zm.324.922 5.406 6.486-8.312-1.44c1.787-1.06 2.87-2.95 2.906-5.046z" transform="translate(45.895 58.512)"></path></g></g></svg></g></g><g><g id="8b6bf968-49ec-4454-8125-b4f33cb4c3e1"><svg x="45" y="231" width="100.625" height="115.695" viewBox="0 0 26.624 30.611"><path fill="#4286c5" d="M13.312.306v15l12.99-7.5z" fill-rule="evenodd"></path><path fill="#26527b" d="m.321 7.806 12.99 7.5v-15z" fill-rule="evenodd"></path><path fill="none" stroke="#020406" d="M13.312.306v15" stroke-width=".265"></path><path fill="#26527b" d="m13.312 15.306 12.99-7.5-6.495 18.75-6.495 3.75z" fill-rule="evenodd"></path><path fill="#326ca2" d="m.321 7.806 12.99 7.5v15l-6.494-3.75z" fill-rule="evenodd"></path><path fill="none" stroke="#0e1e2d" d="m.321 7.806 12.99 7.5 12.991-7.5-12.99 7.5v15" stroke-width=".265"></path><path fill="none" stroke="#000000" d="m13.312.306-12.99 7.5 6.495 18.75 6.495 3.75 6.495-3.75 6.495-18.75z" stroke-width=".529"></path></svg></g></g><g><g id="af67d42c-df08-4e6d-8258-4c3c2c29c98f"><svg x="-400" y="266" width="96" height="113.438" viewBox="0 0 25.4 30.014"><g transform="translate(412.599 -86.957)"><path fill="#3c3c3c" d="M-412.332 102.354v4.786l8.289 4.786h8.29l8.288-4.786v-4.786l-8.289-4.786h-8.29z" fill-rule="evenodd"></path><path fill="#090909" d="m-395.754 111.926 8.29-4.786v4.786l-8.29 4.785z" fill-rule="evenodd"></path><path fill="#232323" d="M-404.043 111.926h8.29v4.785h-8.29zm-8.29-4.786v4.786l8.29 4.785v-4.785z" fill-rule="evenodd"></path><path fill="none" stroke="#000" d="m-412.332 107.14 8.289 4.786h8.29l8.288-4.786m-16.578 4.786v4.785m8.29-4.785v4.785" stroke-width=".266"></path><path fill="none" stroke="#000000" d="M-412.332 102.354v9.572l8.289 4.785h8.29l8.288-4.785v-9.572l-8.289-4.786h-8.29z" stroke-width=".532"></path><path fill="#3c3c3c" d="M-412.333 97.178v4.786l8.29 4.786h8.289l8.29-4.786v-4.786l-8.29-4.786h-8.29z" fill-rule="evenodd"></path><path fill="#090909" d="m-395.754 106.75 8.29-4.786v4.786l-8.29 4.786z" fill-rule="evenodd"></path><path fill="#232323" d="M-404.044 106.75h8.29v4.786h-8.29z" fill-rule="evenodd"></path><path fill="#232323" d="M-412.333 101.964v4.786l8.29 4.786v-4.786z" fill-rule="evenodd"></path><path fill="none" stroke="#000" d="m-412.333 101.964 8.29 4.786h8.289l8.29-4.786m-16.58 4.786v4.786m8.29-4.786v4.786" stroke-width=".266"></path><path fill="none" stroke="#000000" d="M-412.333 97.178v9.572l8.29 4.786h8.289l8.29-4.786v-9.572l-8.29-4.786h-8.29z" stroke-width=".532"></path><path fill="#3c3c3c" d="M-412.333 92.01v4.785l8.29 4.786h8.289l8.29-4.786v-4.786l-8.29-4.786h-8.29z" fill-rule="evenodd"></path><path fill="#090909" d="m-395.754 101.58 8.29-4.785v4.786l-8.29 4.786z" fill-rule="evenodd"></path><path fill="#232323" d="M-404.044 101.58h8.29v4.787h-8.29z" fill-rule="evenodd"></path><path fill="#232323" d="M-412.333 96.795v4.786l8.29 4.786v-4.786z" fill-rule="evenodd"></path><path fill="none" stroke="#000" d="m-412.333 96.795 8.29 4.786h8.289l8.29-4.786m-16.58 4.785v4.787m8.29-4.787v4.787" stroke-width=".266"></path><path fill="none" stroke="#000000" d="M-412.333 92.01v9.57l8.29 4.787h8.289l8.29-4.786v-9.572l-8.29-4.786h-8.29z" stroke-width=".532"></path><circle cx="-136.478" cy="325.284" r="5.801" fill="#f4b934" transform="scale(1.22475 .7071) rotate(45)"></circle><g><path fill="#ffffff" d="m-127.434 301.586-.302-.818q-.136-.375-.321-.512-.18-.136-.638-.136h-.545v-1.144h1.007q.887 0 1.364.375.482.375.813 1.26l2.23 5.94h-1.744l-1.085-2.862-1.144 2.862h-1.743z" transform="scale(1.31605 .75985) rotate(45)" font-family="Droid Serif" font-size="9.971"></path></g></g></svg></g></g><g><g id="e800ecec-e623-4ba4-be50-03508c7991b0"><svg x="-608" y="352" width="93" height="148.142" viewBox="0 0 24.606 39.196"><g transform="translate(-90.671 -137.288)"><path fill="#ececed" d="m91.985 141.821 14.632 8.448 7.316-4.224-14.632-8.447z" fill-rule="evenodd"></path><path fill="#d2d2d4" d="m91.985 165.958-1.045 1.81v-1.207z" fill-rule="evenodd"></path><path fill="#d2d2d4" d="m91.985 165.958 14.632 8.447-1.046 1.81-14.566-8.56zm14.632 8.447-1.046 1.81h2.09z" fill-rule="evenodd"></path><path fill="#d2d2d4" d="M91.985 141.821v24.137l14.632 8.447V150.27z" fill-rule="evenodd"></path><path fill="#b8b8bb" d="m106.617 174.405 1.045 1.81 7.316-4.223v-1.207l-1.045-.603z" fill-rule="evenodd"></path><path fill="#b8b8bb" d="m106.617 150.27 7.316-4.225v24.137l-7.316 4.223z" fill-rule="evenodd"></path><path fill="none" stroke="#83838a" d="m113.933 170.182-7.316 4.223-14.632-8.447-1.045 1.81m1.046-25.947 14.631 8.448 7.316-4.224m-7.316 4.224v24.136m-1.045 1.81 1.045-1.81 1.045 1.81m6.271-6.033 1.045 1.81" stroke-width=".268"></path><path fill="none" stroke="#000000" d="M90.94 167.768v-1.207l1.045-.603V141.82l7.316-4.223 14.632 8.447v24.137l1.045.603v1.207l-7.316 4.224h-2.09z" stroke-width=".529"></path><ellipse cx="141.009" cy="74.394" fill="#4286c5" rx="6.047" ry="4.714" transform="matrix(.19572 .98066 .96381 .26658 0 0)"></ellipse><ellipse cx="141.009" cy="74.394" fill="#ffffff" rx="5.037" ry="3.927" transform="matrix(.19572 .98066 .96381 .26658 0 0)"></ellipse><path fill="none" stroke="#4286c5" d="M99.03 153.24c-3.066 2.889-1.033 7.409.271 9.7" stroke-width=".52"></path><g transform="translate(374.17 163.896) scale(.26818)"><ellipse cx="272.14" cy="-1124.64" fill="#4286c5" rx="3.335" ry="2.648" transform="matrix(.19572 .98066 .96381 .26658 0 0)"></ellipse><ellipse cx="290.38" cy="-1128.297" fill="#4286c5" rx="3.687" ry="2.835" transform="matrix(.19572 .98066 .96381 .26658 0 0)"></ellipse><ellipse cx="290.282" cy="-1113.221" fill="#4286c5" rx="3.51" ry="2.717" transform="matrix(.19572 .98066 .96381 .26658 0 0)"></ellipse><path fill="none" stroke="#4286c5" d="M-1033.087-41.48c4.26 21.344 17.38 30.943 23.61 33.65" stroke-width="1.938"></path><path fill="none" stroke="#4286c5" d="M-1039.896-25.075c12.675 15.122 22.864 16.4 30.106 8.948" stroke-width="1.938"></path></g></g></svg></g></g><g><g id="e61015a8-3d4d-478d-af8d-c26607fe8a5e"><svg x="-840" y="534" width="63" height="95.068" viewBox="0 0 16.669 25.153"><path fill="#000" stroke="#000000" d="M16.668 22.903q0 1.64-.864 2.09-.865.452-2.296-.375L3.161 18.645q-1.432-.828-2.296-2.276Q.001 14.92 0 13.279q0-.724.042-1.39.042-.667.166-1.394.124-.728.313-1.303.19-.574.51-1.038.32-.464.733-.684.415-.219 1.013-.146.598.073 1.32.489.106.061.497.58.39.52.881 1.166.492.645 1.28 1.394.787.749 1.58 1.206.793.458 1.58.619.788.16 1.279.082.491-.078.882-.147.39-.068.497-.007.722.417 1.32 1.036.598.618 1.012 1.315.414.697.734 1.53.32.834.509 1.627.19.793.314 1.665.124.871.165 1.585.042.714.042 1.439zM12.88 8.509q0 2.173-1.331 2.942-1.332.77-3.214-.317T5.121 7.74Q3.789 5.434 3.789 3.26q0-2.173 1.332-2.942 1.332-.769 3.214.318 1.882 1.086 3.214 3.393 1.331 2.307 1.331 4.48z" stroke-width=".268"></path></svg></g></g></g><g pointer-events="auto"></g><g pointer-events="auto"></g><g pointer-events="auto"><g><g id="e9543f73-b4c3-4227-8c9d-8452a4e9b414"><svg x="-841" y="596" overflow="visible"><text stroke="#ffffff" stroke-width="4" font-family="Open Sans" y="36.5" font-size="25pt" fill="#000000" font-weight="bold" transform="matrix(0.707 0.409 -0.707 0.409 0 0)" xml:space="preserve"><tspan x="8" dy="0">Traffic</tspan></text><text font-family="Open Sans" y="36.5" font-size="25pt" fill="#000000" font-weight="bold" transform="matrix(0.707 0.409 -0.707 0.409 0 0)" xml:space="preserve"><tspan x="8" dy="0">Traffic</tspan></text></svg></g></g><g><g id="480b0259-3dd7-4637-ad3e-30c41e9215a6"><svg x="-661" y="438" overflow="visible"><text stroke="#ffffff" stroke-width="4" font-family="Open Sans" y="36.5" font-size="25pt" fill="#000000" font-weight="bold" transform="matrix(0.707 0.409 -0.707 0.409 0 0)" xml:space="preserve"><tspan x="8" dy="0">CloudFront</tspan></text><text font-family="Open Sans" y="36.5" font-size="25pt" fill="#000000" font-weight="bold" transform="matrix(0.707 0.409 -0.707 0.409 0 0)" xml:space="preserve"><tspan x="8" dy="0">CloudFront</tspan></text></svg></g></g><g><g id="8e19039a-5388-4a4e-bcf2-805d4e041ae6"><svg x="-432" y="342" overflow="visible"><text stroke="#ffffff" stroke-width="4" font-family="Open Sans" y="36.5" font-size="25pt" fill="#000000" font-weight="bold" transform="matrix(0.707 0.409 -0.707 0.409 0 0)" xml:space="preserve"><tspan x="8" dy="0">Lambda</tspan></text><text font-family="Open Sans" y="36.5" font-size="25pt" fill="#000000" font-weight="bold" transform="matrix(0.707 0.409 -0.707 0.409 0 0)" xml:space="preserve"><tspan x="8" dy="0">Lambda</tspan></text></svg></g></g><g><g id="0f1b90a6-fa82-497e-9066-447eacbb09bd"><svg x="-248" y="153" overflow="visible"><text stroke="#ffffff" stroke-width="4" font-family="Open Sans" y="36.5" font-size="25pt" fill="#000000" font-weight="bold" transform="matrix(0.707 0.409 -0.707 0.409 0 0)" xml:space="preserve"><tspan x="8" dy="0">Database</tspan></text><text font-family="Open Sans" y="36.5" font-size="25pt" fill="#000000" font-weight="bold" transform="matrix(0.707 0.409 -0.707 0.409 0 0)" xml:space="preserve"><tspan x="8" dy="0">Database</tspan></text></svg></g></g><g><g id="fb8cb0c1-2641-4b9c-af3d-1ba7a18e8159"><svg x="-120" y="227" overflow="visible"><text stroke="#ffffff" stroke-width="4" font-family="Open Sans" y="36.5" font-size="25pt" fill="#000000" font-weight="bold" transform="matrix(0.707 0.409 -0.707 0.409 0 0)" xml:space="preserve"><tspan x="8" dy="0">EFS</tspan></text><text font-family="Open Sans" y="36.5" font-size="25pt" fill="#000000" font-weight="bold" transform="matrix(0.707 0.409 -0.707 0.409 0 0)" xml:space="preserve"><tspan x="8" dy="0">EFS</tspan></text></svg></g></g><g><g id="8de574d8-5153-4fb8-907c-dae7381ff9c7"><svg x="67" y="331" overflow="visible"><text stroke="#ffffff" stroke-width="4" font-family="Open Sans" y="36.5" font-size="25pt" fill="#000000" font-weight="bold" transform="matrix(0.707 0.409 -0.707 0.409 0 0)" xml:space="preserve"><tspan x="8" dy="0">S3</tspan></text><text font-family="Open Sans" y="36.5" font-size="25pt" fill="#000000" font-weight="bold" transform="matrix(0.707 0.409 -0.707 0.409 0 0)" xml:space="preserve"><tspan x="8" dy="0">S3</tspan></text></svg></g></g></g></g></svg>